<svg width="31" height="23" viewBox="0 0 31 23" fill="none" xmlns="http://www.w3.org/2000/svg">
<path d="M16.9427 6.89609C16.9427 6.06328 16.2083 5.96172 15.5156 5.96172L13.4792 5.94648V9.46562H14.3333V8.19102H15.2708C16.2292 8.19102 16.026 8.71406 16.0417 9.46562H16.9063V8.78008C16.9063 8.31289 16.8281 8.01328 16.3333 7.8457C16.7188 7.69336 16.9479 7.30234 16.9427 6.89609ZM15.4115 7.46992H14.3333V6.69297H15.4271C15.6927 6.69297 15.9844 6.74375 15.9844 7.06875C15.9844 7.40391 15.7083 7.46992 15.4115 7.46992ZM14.5417 12.0148H11.7969L10.7031 13.1727L9.63542 12.0148H6.17188L6.16667 15.534H9.57292L10.6823 14.366L11.7448 15.534H13.4219L13.4271 14.3508C14.4115 14.3508 15.9948 14.5844 15.9948 13.1676C15.9948 12.2891 15.3542 12.0148 14.5417 12.0148ZM9.13542 14.7926H7.02083V14.0918H8.91146V13.3758H7.02083V12.741H9.19271L10.125 13.7668L9.13542 14.7926ZM12.5625 15.209L11.2448 13.782L12.5625 12.3906V15.209ZM14.5313 13.6348H13.4271V12.741H14.5469C14.8385 12.741 15.0781 12.8578 15.0781 13.1676C15.0781 13.4926 14.8385 13.6348 14.5313 13.6348ZM12.8854 6.69297V5.95156H9.99479V9.4707H12.8854V8.74453H10.8594V8.04375H12.8281V7.32773H10.8594V6.69297H12.8854ZM30.0104 11.3445H30H30.0104ZM19.875 12.9645C19.875 12.1316 19.1406 12.0148 18.4635 12.0148H16.4115L16.4062 15.534H17.2708L17.276 14.2492H18.1927C18.7656 14.2492 18.9635 14.3508 18.9635 14.95L18.9583 15.534H19.8229L19.8281 14.8332C19.8281 14.3813 19.7344 14.0664 19.2552 13.8988C19.6563 13.7414 19.8698 13.3504 19.875 12.9645ZM18.3542 13.5332H17.276V12.741H18.3698C18.6354 12.741 18.9271 12.7918 18.9271 13.1168C18.9271 13.4672 18.6458 13.5332 18.3542 13.5332ZM9.35417 9.4707V5.95156H7.91667L6.89063 8.33828L5.76042 5.95156H4.34896V9.28789L2.88542 5.95156H1.60938L0.0625 9.4707H0.994792L1.32813 8.69375H3.125L3.45833 9.4707H5.21875V6.71836L6.46875 9.4707H7.22917L8.47917 6.71836V9.4707H9.35417ZM1.63542 7.9625L2.21875 6.56094L2.81771 7.9625H1.63542ZM26.5 16.0316V15.8031C25.9375 16.0875 26.2969 16.0316 18.3385 16.0316C18.3385 14.752 18.3438 14.818 18.3385 14.752C18.25 14.7469 18.1719 14.7469 17.849 14.7469C17.849 15.6559 17.8438 15.0922 17.8438 16.0316H15.7813C15.7813 15.4172 15.7865 15.2547 15.7865 14.5488C15.2656 14.8535 14.599 14.8738 14 14.8637C14 15.6102 13.9948 15.2852 13.9948 16.0316H11.4479C11.1823 15.7422 11.3073 15.8742 10.6458 15.148C10.4792 15.3258 9.97917 15.8539 9.80729 16.0316H5.53646V11.3445H9.86458C10.125 11.6289 10.0104 11.502 10.6719 12.218C10.8385 12.0402 11.3073 11.5375 11.4896 11.3445H14.5104C15.0208 11.3445 15.4479 11.441 15.776 11.6289V11.3445C18.6042 11.3445 19.125 11.2734 19.7188 11.6035V11.3445H23.7917V11.6086C24.3854 11.2582 24.8125 11.3445 27.1719 11.3445V11.5984C27.7083 11.2988 28.0365 11.3344 30 11.3445V2.4375C30 1.0918 28.8802 0 27.5 0H2.5C1.11979 0 0 1.0918 0 2.4375V8.01328C0.489583 6.90117 1.02604 5.67734 1.20313 5.27617H3.27083C3.49479 5.78906 3.35417 5.46406 3.73958 6.34766V5.27617H6.13542C6.28646 5.59102 6.71354 6.49492 6.85938 6.79961C7.16146 6.10898 7.38542 5.58594 7.51563 5.27617H12.8802C12.8802 5.27109 13.4792 5.27617 13.4844 5.27617C15.7604 5.28633 16.276 5.23555 16.8385 5.54531V5.27617H18.9167V5.74844C19.3125 5.43867 19.849 5.27617 20.5156 5.27617H21.9531C21.9531 5.30156 22.0521 5.29141 22.0729 5.29141H23.7604C23.9792 5.78906 23.8958 5.59609 24.2188 6.3375V5.29141H26.474C26.7292 5.69766 26.4219 5.2 27.0573 6.22578V5.29141H29.1354V9.96328H26.9688C26.6875 9.50625 26.8958 9.85156 26.2813 8.85117V9.96328H23.5313C23.1979 9.21172 23.526 9.94805 23.1875 9.18633H22.1979C21.9792 9.69414 22.0833 9.45039 21.8646 9.96328H20.4688C19.8281 9.96328 19.3073 9.81094 18.9219 9.51133V9.96328H15.4583C15.4427 9.25742 15.4531 8.70391 15.4531 8.70391C15.3594 8.68867 15.276 8.69375 14.9427 8.69375V9.96836H7.88542V9.38945C7.75521 9.67383 7.74479 9.68906 7.61979 9.96836H6.08333C5.875 9.51641 5.93229 9.64336 5.81771 9.38945V9.96836H3.0625C2.84375 9.45547 2.94792 9.69922 2.72917 9.19141H1.72917C1.51042 9.69922 1.61458 9.45547 1.39583 9.96836H0.0104167V20.3125C0.0104167 21.6582 1.13021 22.75 2.51042 22.75H27.5156C28.8958 22.75 30.0156 21.6582 30.0156 20.3125V15.7219C29.3542 16.1434 28.3125 16.0316 26.5 16.0316ZM28.3906 12.7563H29.9583V12.0148H28.2448C27.5781 12.0148 27.0052 12.35 27.0052 13.066C27.0052 14.7418 29.2292 13.716 29.2292 14.4574C29.2292 14.7164 29.0052 14.7824 28.7917 14.7824H27.125L27.1198 15.534H28.7865C29.224 15.534 29.7031 15.4426 29.9583 15.082V13.7719C29.4115 13.0711 27.9115 13.7059 27.9115 13.0863C27.9115 12.7918 28.151 12.7563 28.3906 12.7563ZM25.4219 14.7773H23.7448L23.7396 15.5289H25.4167C26.1875 15.5289 26.7813 15.2445 26.7813 14.4117C26.7813 12.7258 24.5469 13.843 24.5469 13.0762C24.5469 12.7918 24.8021 12.7512 25.026 12.7512H26.6094V12.0098H24.8802C24.2135 12.0098 23.6563 12.3449 23.6563 13.0609C23.6563 14.7367 25.8802 13.6957 25.8802 14.4523C25.875 14.7266 25.6354 14.7773 25.4219 14.7773ZM23.224 12.741V12.0148H20.349L20.3438 15.534H23.2188L23.224 14.8078L21.2135 14.7926V14.0918H23.1875V13.3758H21.2188V12.741H23.224ZM20.2917 7.25156C20.276 7.26172 20.2188 7.36328 20.2188 7.6375C20.2188 7.94219 20.2656 8.02852 20.276 8.03867C20.2865 8.04375 20.3333 8.06406 20.4531 8.06406L20.8333 7.20586C20.776 7.20586 20.724 7.20078 20.6719 7.20078C20.3802 7.20078 20.3073 7.23633 20.2917 7.25156ZM21.3542 6.71836H21.349H21.3542ZM20.5104 5.94648C19.2865 5.94648 18.7396 6.55586 18.7396 7.73906C18.7396 8.86641 19.2708 9.46562 20.4583 9.46562H21.4583L21.7917 8.68867H23.5781L23.9219 9.46562H25.6771V6.83008L27.3021 9.46562H28.5312V5.96172H27.651V8.4043L26.1354 5.96172H24.8177V9.28281L23.3646 5.96172H22.0729L20.849 8.7293H20.4635C19.7708 8.7293 19.625 8.31797 19.625 7.71875C19.625 6.51016 20.4427 6.70312 21.349 6.71836V5.94648H20.5104ZM22.7031 6.56094L23.2865 7.9625H22.099L22.7031 6.56094ZM17.4375 5.95156V9.4707H18.3177V5.95156H17.4375Z" fill="black"/>
</svg>
