<svg width="30" height="21" viewBox="0 0 30 21" fill="none" xmlns="http://www.w3.org/2000/svg">
<path d="M27.4478 0H2.55223C1.14441 0 0 1.15194 0 2.57205V18.4279C0 19.8481 1.14441 20.997 2.55223 20.997H27.4478C28.8586 20.997 30 19.845 30 18.4279V2.57205C30 1.15194 28.8556 0 27.4478 0ZM9.29761 16.6269C5.30124 16.6269 2.967 13.9848 2.967 10.724C2.967 7.46321 5.08629 4.82107 9.29761 4.82107C13.2758 4.82107 15.4556 7.26208 15.6191 10.3461H9.4944V10.98H15.6222C15.5071 14.1219 13.2667 16.6269 9.29458 16.6269H9.29761ZM26.2489 15.4811C25.7766 15.9565 25.1226 16.2521 24.399 16.2521H16.2489V10.9891H24.399C25.8432 10.9891 27.0148 12.1685 27.0148 13.6221C27.0148 14.3505 26.7212 15.0057 26.2489 15.4841V15.4811ZM26.2489 9.69395C25.7766 10.1694 25.1226 10.465 24.399 10.465H16.2489V5.19896H24.399C25.8432 5.19896 27.0148 6.37832 27.0148 7.83195C27.0148 8.5603 26.7212 9.2155 26.2489 9.69395Z" fill="black"/>
</svg>
