<svg width="64" height="34" viewBox="0 0 64 34" fill="none" xmlns="http://www.w3.org/2000/svg">
  <path
    d="M54.8462 33.9981C53.7859 33.9988 52.7491 33.6851 51.8671 33.0966C50.9851 32.508 50.2974 31.6711 49.8911 30.6917C49.4848 29.7123 49.3781 28.6344 49.5845 27.5944C49.7908 26.5543 50.3011 25.5988 51.0506 24.8487C51.8001 24.0987 52.7552 23.5878 53.7951 23.3806C54.835 23.1735 55.913 23.2794 56.8927 23.685C57.8724 24.0906 58.7098 24.7777 59.299 25.6592C59.8882 26.5408 60.2027 27.5774 60.2027 28.6377C60.202 30.0585 59.6375 31.4209 58.6333 32.4259C57.629 33.4309 56.267 33.9963 54.8462 33.9981ZM54.8462 25.2327C54.1726 25.232 53.5139 25.431 52.9534 25.8047C52.393 26.1783 51.9559 26.7099 51.6976 27.332C51.4393 27.9541 51.3713 28.6388 51.5023 29.2996C51.6332 29.9603 51.9572 30.5674 52.4332 31.044C52.9093 31.5206 53.516 31.8453 54.1766 31.977C54.8372 32.1087 55.522 32.0415 56.1444 31.7839C56.7668 31.5263 57.2988 31.0898 57.6732 30.5298C58.0475 29.9698 58.2473 29.3113 58.2473 28.6377C58.2469 27.7354 57.8886 26.8702 57.251 26.2318C56.6133 25.5934 55.7485 25.2341 54.8462 25.2327Z"
    fill="black" />
  <path
    d="M26.5145 33.9981C25.4238 33.9991 24.3573 33.6856 23.4499 33.0972C22.5425 32.5088 21.835 31.672 21.4168 30.6926C20.9987 29.7133 20.8888 28.6353 21.1009 27.5951C21.313 26.555 21.8377 25.5994 22.6086 24.8492C23.3794 24.099 24.3618 23.588 25.4315 23.3807C26.5012 23.1735 27.61 23.2793 28.6178 23.6849C29.6256 24.0904 30.487 24.7775 31.0931 25.6591C31.6991 26.5407 32.0226 27.5773 32.0226 28.6377C32.0216 30.0581 31.4411 31.4202 30.4085 32.4251C29.3759 33.43 27.9755 33.9956 26.5145 33.9981ZM26.5145 25.2327C25.8216 25.2317 25.1439 25.4305 24.5673 25.804C23.9906 26.1775 23.5409 26.709 23.275 27.3311C23.0091 27.9531 22.939 28.6379 23.0735 29.2988C23.208 29.9596 23.5412 30.5668 24.0308 31.0435C24.5203 31.5203 25.1444 31.8451 25.8239 31.9769C26.5034 32.1087 27.2079 32.0415 27.8481 31.784C28.4884 31.5264 29.0357 31.09 29.4208 30.5299C29.8058 29.9699 30.0114 29.3114 30.0114 28.6377C30.0107 27.7358 29.6422 26.8709 28.9867 26.2326C28.3312 25.5944 27.4422 25.2348 26.5145 25.2327Z"
    fill="black" />
  <path
    d="M62.1667 29.7093H59.4354C59.1705 29.7093 58.9165 29.6049 58.7292 29.4191C58.5419 29.2333 58.4367 28.9813 58.4367 28.7186C58.4367 28.4558 58.5419 28.2038 58.7292 28.018C58.9165 27.8323 59.1705 27.7279 59.4354 27.7279H61.8843V22.4745C61.8837 21.7642 61.7004 21.0659 61.3517 20.4455L55.9451 10.8303C55.8989 10.7483 55.8315 10.6799 55.7498 10.6323C55.6681 10.5847 55.5751 10.5596 55.4804 10.5595H48.1122V27.7318H50.4906C50.7555 27.7318 51.0095 27.8362 51.1968 28.022C51.3841 28.2078 51.4894 28.4598 51.4894 28.7226C51.4894 28.9853 51.3841 29.2373 51.1968 29.4231C51.0095 29.6089 50.7555 29.7133 50.4906 29.7133H47.1135C46.8486 29.7133 46.5946 29.6089 46.4073 29.4231C46.22 29.2373 46.1147 28.9853 46.1147 28.7226V9.56883C46.1147 9.30608 46.22 9.05409 46.4073 8.8683C46.5946 8.6825 46.8486 8.57813 47.1135 8.57813H55.4804C55.9309 8.57791 56.3734 8.69705 56.762 8.92323C57.1506 9.14942 57.4713 9.47445 57.6909 9.86473L63.0962 19.4812C63.61 20.3965 63.88 21.4268 63.8805 22.4745V28.0092C63.8798 28.4599 63.699 28.8919 63.3778 29.2106C63.0565 29.5293 62.621 29.7086 62.1667 29.7093Z"
    fill="black" />
  <path
    d="M22.1634 29.7103H12.7861C12.5267 29.7103 12.278 29.6071 12.0946 29.4233C11.9111 29.2396 11.8081 28.9904 11.8081 28.7305V21.1947C11.8081 20.9348 11.9111 20.6856 12.0946 20.5018C12.278 20.3181 12.5267 20.2148 12.7861 20.2148C13.0455 20.2148 13.2943 20.3181 13.4777 20.5018C13.6611 20.6856 13.7642 20.9348 13.7642 21.1947V27.7506H22.1634C22.4228 27.7506 22.6716 27.8539 22.855 28.0376C23.0384 28.2214 23.1414 28.4706 23.1414 28.7305C23.1414 28.9904 23.0384 29.2396 22.855 29.4233C22.6716 29.6071 22.4228 29.7103 22.1634 29.7103Z"
    fill="black" />
  <path
    d="M12.727 17.4594C12.4833 17.4594 12.2496 17.3557 12.0773 17.1711C11.9049 16.9866 11.8081 16.7362 11.8081 16.4752V9.86697C11.8081 9.60595 11.9049 9.35563 12.0773 9.17106C12.2496 8.9865 12.4833 8.88281 12.727 8.88281C12.9707 8.88281 13.2045 8.9865 13.3768 9.17106C13.5491 9.35563 13.6459 9.60595 13.6459 9.86697V16.4792C13.645 16.7395 13.5477 16.9888 13.3755 17.1725C13.2033 17.3562 12.9701 17.4594 12.727 17.4594Z"
    fill="black" />
  <path
    d="M47.2761 29.7117H31.0099C30.7494 29.7117 30.4995 29.6079 30.3152 29.4232C30.1309 29.2384 30.0274 28.9879 30.0274 28.7266C30.0274 28.4654 30.1309 28.2148 30.3152 28.0301C30.4995 27.8453 30.7494 27.7415 31.0099 27.7415H46.2936V1.97019H13.7731V6.02745C13.7731 6.28872 13.6696 6.53928 13.4853 6.72402C13.3011 6.90876 13.0512 7.01255 12.7906 7.01255C12.53 7.01255 12.2801 6.90876 12.0959 6.72402C11.9116 6.53928 11.8081 6.28872 11.8081 6.02745V1.78893C11.8088 1.31446 11.9972 0.859645 12.3319 0.524269C12.6667 0.188892 13.1204 0.00034734 13.5936 0H46.4743C46.9473 0.000694858 47.4008 0.189394 47.7352 0.524732C48.0697 0.860071 48.2579 1.31469 48.2586 1.78893V28.7266C48.2586 28.9879 48.155 29.2384 47.9708 29.4232C47.7865 29.6079 47.5366 29.7117 47.2761 29.7117Z"
    fill="black" />
  <path
    d="M16.6273 22.0527H3.92602C3.66061 22.0527 3.40607 21.9559 3.2184 21.7835C3.03073 21.6112 2.92529 21.3775 2.92529 21.1338C2.92529 20.8901 3.03073 20.6563 3.2184 20.484C3.40607 20.3117 3.66061 20.2148 3.92602 20.2148H16.6273C16.8927 20.2148 17.1472 20.3117 17.3349 20.484C17.5226 20.6563 17.628 20.8901 17.628 21.1338C17.628 21.3775 17.5226 21.6112 17.3349 21.7835C17.1472 21.9559 16.8927 22.0527 16.6273 22.0527Z"
    fill="black" />
  <path
    d="M26.4506 17.4589H9.11135C8.8517 17.4589 8.60268 17.3621 8.41908 17.1898C8.23547 17.0175 8.13232 16.7837 8.13232 16.54C8.13232 16.2963 8.23547 16.0626 8.41908 15.8902C8.60268 15.7179 8.8517 15.6211 9.11135 15.6211H26.4506C26.7102 15.6211 26.9593 15.7179 27.1429 15.8902C27.3265 16.0626 27.4296 16.2963 27.4296 16.54C27.4296 16.7837 27.3265 17.0175 27.1429 17.1898C26.9593 17.3621 26.7102 17.4589 26.4506 17.4589Z"
    fill="black" />
  <path
    d="M8.39541 12.2519H1.74269C1.48757 12.2519 1.2429 12.1551 1.0625 11.9828C0.882108 11.8104 0.780762 11.5767 0.780762 11.333C0.780762 11.0893 0.882108 10.8555 1.0625 10.6832C1.2429 10.5109 1.48757 10.4141 1.74269 10.4141H8.39541C8.65053 10.4141 8.8952 10.5109 9.07559 10.6832C9.25599 10.8555 9.35734 11.0893 9.35734 11.333C9.35734 11.5767 9.25599 11.8104 9.07559 11.9828C8.8952 12.1551 8.65053 12.2519 8.39541 12.2519Z"
    fill="black" />
  <path
    d="M19.3928 7.04649H7.28613C7.02312 7.04649 6.77088 6.93354 6.5849 6.73249C6.39892 6.53143 6.29443 6.25875 6.29443 5.97442C6.29443 5.69009 6.39892 5.4174 6.5849 5.21635C6.77088 5.01529 7.02312 4.90234 7.28613 4.90234H19.3928C19.6558 4.90234 19.9081 5.01529 20.0941 5.21635C20.28 5.4174 20.3845 5.69009 20.3845 5.97442C20.3845 6.25875 20.28 6.53143 20.0941 6.73249C19.9081 6.93354 19.6558 7.04649 19.3928 7.04649Z"
    fill="black" />
</svg>
  