<svg width="28" height="17" viewBox="0 0 28 17" fill="none" xmlns="http://www.w3.org/2000/svg">
<path d="M13.7471 1.8173C14.7592 2.61174 15.5773 3.62599 16.1395 4.78331C16.7017 5.94062 16.9933 7.21066 16.9921 8.4973C16.9929 9.78352 16.7011 11.0531 16.1389 12.2099C15.5768 13.3668 14.7589 14.3806 13.7471 15.1748C12.7352 14.3805 11.9172 13.3664 11.355 12.2094C10.7928 11.0523 10.5011 9.78248 10.5021 8.49605C10.5011 7.20962 10.7928 5.93983 11.355 4.78275C11.9172 3.62566 12.7352 2.61161 13.7471 1.8173ZM12.6596 1.0898C11.5883 2.00427 10.7283 3.14046 10.1391 4.41984C9.54995 5.69921 9.2456 7.09128 9.24711 8.4998C9.24565 9.90772 9.54979 11.2992 10.1385 12.5781C10.7273 13.857 11.5866 14.9929 12.6571 15.9073C11.3638 16.6333 9.90308 17.0082 8.42003 16.9946C6.93698 16.9811 5.4833 16.5797 4.20348 15.8302C2.92367 15.0808 1.86229 14.0094 1.12486 12.7226C0.387427 11.4358 -0.000375072 9.97846 2.72205e-07 8.49535C0.000375616 7.01224 0.388916 5.55506 1.127 4.26865C1.86508 2.98224 2.927 1.91141 4.20719 1.1626C5.48739 0.413791 6.94128 0.0130859 8.42433 0.000315114C9.90738 -0.0124556 11.368 0.363153 12.6609 1.0898H12.6596ZM14.8371 15.9073C15.9076 14.9929 16.7669 13.857 17.3557 12.5781C17.9444 11.2992 18.2486 9.90772 18.2471 8.4998C18.2486 7.09128 17.9443 5.69921 17.3551 4.41984C16.7659 3.14046 15.9059 2.00427 14.8346 1.0898C16.1275 0.363153 17.5881 -0.0124556 19.0711 0.000315114C20.5542 0.0130859 22.0081 0.413791 23.2883 1.1626C24.5685 1.91141 25.6304 2.98224 26.3685 4.26865C27.1065 5.55506 27.4951 7.01224 27.4955 8.49535C27.4958 9.97846 27.108 11.4358 26.3706 12.7226C25.6332 14.0094 24.5718 15.0808 23.292 15.8302C22.0122 16.5797 20.5585 16.9811 19.0754 16.9946C17.5924 17.0082 16.1316 16.6333 14.8384 15.9073H14.8371Z" fill="black"/>
</svg>
