<svg width="30" height="24" viewBox="0 0 30 24" fill="none" xmlns="http://www.w3.org/2000/svg">
<path d="M24.4856 10.3809C24.4856 10.3809 24.8813 12.3188 24.9703 12.7247H23.2312L24.0647 10.4588C24.0544 10.4747 24.2362 9.98438 24.3403 9.6825L24.4856 10.3809ZM30.0009 2.50031V20.8341C30.0007 21.4971 29.7372 22.1329 29.2683 22.6018C28.7995 23.0706 28.1637 23.3341 27.5006 23.3344H2.50031C1.83726 23.3341 1.20144 23.0706 0.732599 22.6018C0.263753 22.1329 0.000248472 21.4971 0 20.8341V2.50031C0.000248472 1.83726 0.263753 1.20144 0.732599 0.732599C1.20144 0.263753 1.83726 0.000248472 2.50031 0H27.5006C28.1637 0.000248472 28.7995 0.263753 29.2683 0.732599C29.7372 1.20144 30.0007 1.83726 30.0009 2.50031ZM7.94344 15.5841L11.235 7.50094H9.02156L6.975 13.0219L6.75094 11.9025L6.02156 8.18344C5.90156 7.66781 5.53219 7.52156 5.07375 7.50094H1.70438L1.66781 7.66219C2.43945 7.85149 3.17962 8.15147 3.86531 8.55281L5.73 15.5841H7.94344ZM12.8606 15.5944L14.1731 7.50094H12.0797L10.7728 15.5944H12.8606ZM20.1469 12.9488C20.1572 12.0272 19.5947 11.3241 18.3919 10.7456C17.6578 10.3753 17.2097 10.1259 17.2097 9.74531C17.22 9.40125 17.5903 9.04688 18.4125 9.04688C18.948 9.03177 19.4801 9.13684 19.9697 9.35437L20.1572 9.4425L20.4441 7.69219C19.8456 7.46307 19.2099 7.34643 18.5691 7.34812C16.5009 7.34812 15.0478 8.4525 15.0375 10.0247C15.0216 11.1863 16.0791 11.8322 16.8713 12.2222C17.6784 12.6178 17.955 12.8784 17.955 13.2272C17.9447 13.7691 17.2987 14.0184 16.6997 14.0184C15.8663 14.0184 15.4181 13.8881 14.7356 13.5863L14.46 13.4559L14.1684 15.2738C14.6578 15.4978 15.5644 15.6956 16.5019 15.7059C18.6994 15.7106 20.1319 14.6222 20.1478 12.9459L20.1469 12.9488ZM27.5006 15.5944L25.8131 7.50094H24.1931C23.6934 7.50094 23.3128 7.64719 23.0991 8.17313L19.9894 15.5953H22.1869C22.1869 15.5953 22.5459 14.595 22.6247 14.3822H25.3125C25.3753 14.6691 25.5628 15.5953 25.5628 15.5953L27.5006 15.5944Z" fill="black"/>
</svg>
